<svg width="194" height="32" viewBox="0 0 194 32" fill="none" xmlns="http://www.w3.org/2000/svg">
<path d="M5.4375 25V22.5938L7.92188 22.125V5.26562H3.34375L3 8.17188H0.046875V2.25H19.75V8.17188H16.7812L16.4375 5.26562H11.8594V22.125L14.3438 22.5938V25H5.4375Z" fill="white"/>
<path d="M21.5625 25V22.5938L23.9062 22.125V3.51562L21.4219 3.04688V0.625H27.8281V10.2812C28.3802 9.48958 29.0625 8.875 29.875 8.4375C30.6875 8 31.6042 7.78125 32.625 7.78125C34.3646 7.78125 35.7292 8.33854 36.7188 9.45312C37.7188 10.5573 38.2188 12.2656 38.2188 14.5781V22.125L40.5625 22.5938V25H32.0781V22.5938L34.2969 22.125V14.5469C34.2969 13.2552 34.0365 12.3229 33.5156 11.75C32.9948 11.1771 32.2292 10.8906 31.2188 10.8906C30.5 10.8906 29.849 11.0521 29.2656 11.375C28.6927 11.6875 28.2135 12.1302 27.8281 12.7031V22.125L30.0469 22.5938V25H21.5625Z" fill="white"/>
<path d="M42.1875 25V22.5938L44.5312 22.125V10.9844L42.0469 10.5156V8.09375H48.4688V22.125L50.7969 22.5938V25H42.1875ZM44.375 4.26562V0.625H48.4688V4.26562H44.375Z" fill="white"/>
<path d="M58.1719 25.3281C56.4531 25.3281 55.1146 24.8854 54.1562 24C53.1979 23.1146 52.7188 21.8958 52.7188 20.3438C52.7188 19.2812 53.0104 18.349 53.5938 17.5469C54.1771 16.7448 55.0312 16.1198 56.1562 15.6719C57.2812 15.2135 58.6458 14.9844 60.25 14.9844H62.8281V13.5625C62.8281 12.6667 62.5573 11.9531 62.0156 11.4219C61.4844 10.8906 60.7083 10.625 59.6875 10.625C59.1042 10.625 58.5885 10.6979 58.1406 10.8438C57.6927 10.9792 57.2917 11.1771 56.9375 11.4375L56.5781 13.7188H53.6875L53.6562 9.54688C54.4896 9.00521 55.4167 8.57812 56.4375 8.26562C57.4583 7.94271 58.5938 7.78125 59.8438 7.78125C61.9896 7.78125 63.6771 8.28646 64.9062 9.29688C66.1458 10.2969 66.7656 11.7344 66.7656 13.6094V21.0625C66.7656 21.2917 66.7656 21.5156 66.7656 21.7344C66.776 21.9531 66.7917 22.1667 66.8125 22.375L68.5312 22.5938V25H63.3906C63.2865 24.6354 63.1875 24.2812 63.0938 23.9375C63.0104 23.5938 62.9479 23.25 62.9062 22.9062C62.3438 23.6146 61.6615 24.1979 60.8594 24.6562C60.0677 25.1042 59.1719 25.3281 58.1719 25.3281ZM59.0625 22.2812C59.8542 22.2812 60.5938 22.099 61.2812 21.7344C61.9688 21.3594 62.4844 20.8906 62.8281 20.3281V17.5H60.2031C59.026 17.5 58.1354 17.776 57.5312 18.3281C56.9375 18.8698 56.6406 19.5052 56.6406 20.2344C56.6406 20.8906 56.849 21.3958 57.2656 21.75C57.6823 22.1042 58.2812 22.2812 59.0625 22.2812Z" fill="white"/>
<path d="M77.9062 31.8281C77.0729 31.8281 76.1458 31.7135 75.125 31.4844C74.1146 31.2656 73.224 30.9583 72.4531 30.5625L73.2656 27.6875C73.9323 27.9896 74.6667 28.2344 75.4688 28.4219C76.2708 28.6094 77.0312 28.7031 77.75 28.7031C79.0417 28.7031 79.9844 28.3438 80.5781 27.625C81.1823 26.9167 81.4844 25.9115 81.4844 24.6094V23.2812C80.9635 23.9479 80.3438 24.4583 79.625 24.8125C78.9062 25.1562 78.0833 25.3281 77.1562 25.3281C75.7812 25.3281 74.5938 24.9844 73.5938 24.2969C72.6042 23.6094 71.8438 22.6458 71.3125 21.4062C70.7917 20.1667 70.5312 18.7292 70.5312 17.0938V16.7656C70.5312 14.9635 70.7917 13.3906 71.3125 12.0469C71.8438 10.7031 72.599 9.65625 73.5781 8.90625C74.5677 8.15625 75.7448 7.78125 77.1094 7.78125C78.1406 7.78125 79.0365 7.99479 79.7969 8.42188C80.5573 8.83854 81.2031 9.4375 81.7344 10.2188L82.0312 8.09375H85.4219V24.625C85.4219 26.0938 85.125 27.3646 84.5312 28.4375C83.9375 29.5208 83.0781 30.3542 81.9531 30.9375C80.8281 31.5312 79.4792 31.8281 77.9062 31.8281ZM78.2188 22.2188C78.9792 22.2188 79.625 22.0573 80.1562 21.7344C80.6979 21.4115 81.1406 20.9427 81.4844 20.3281V12.7969C81.1406 12.2031 80.6979 11.7396 80.1562 11.4062C79.6146 11.0625 78.974 10.8906 78.2344 10.8906C77.3698 10.8906 76.6562 11.1406 76.0938 11.6406C75.5417 12.1302 75.1302 12.8177 74.8594 13.7031C74.599 14.5781 74.4688 15.599 74.4688 16.7656V17.0938C74.4688 18.6562 74.7656 19.901 75.3594 20.8281C75.9635 21.7552 76.9167 22.2188 78.2188 22.2188ZM84.8906 11.0625L83.2344 8.09375H87.4531V10.5156L84.8906 11.0625Z" fill="white"/>
<path d="M96.6562 25.3281C95.0312 25.3281 93.6354 24.9635 92.4688 24.2344C91.3021 23.5052 90.4062 22.4948 89.7812 21.2031C89.1562 19.901 88.8438 18.4062 88.8438 16.7188V16.3906C88.8438 14.7135 89.1562 13.2292 89.7812 11.9375C90.4062 10.6458 91.3021 9.63021 92.4688 8.89062C93.6354 8.15104 95.0208 7.78125 96.625 7.78125C98.25 7.78125 99.6458 8.15104 100.812 8.89062C101.979 9.61979 102.875 10.6302 103.5 11.9219C104.125 13.2135 104.438 14.7031 104.438 16.3906V16.7188C104.438 18.4062 104.125 19.901 103.5 21.2031C102.875 22.4948 101.979 23.5052 100.812 24.2344C99.6562 24.9635 98.2708 25.3281 96.6562 25.3281ZM96.6562 22.2969C97.5312 22.2969 98.25 22.0625 98.8125 21.5938C99.3854 21.1146 99.8125 20.4583 100.094 19.625C100.375 18.7812 100.516 17.8125 100.516 16.7188V16.3906C100.516 15.3073 100.375 14.349 100.094 13.5156C99.8125 12.6823 99.3854 12.026 98.8125 11.5469C98.2396 11.0677 97.5104 10.8281 96.625 10.8281C95.7604 10.8281 95.0417 11.0677 94.4688 11.5469C93.8958 12.026 93.4688 12.6823 93.1875 13.5156C92.9167 14.349 92.7812 15.3073 92.7812 16.3906V16.7188C92.7812 17.8125 92.9167 18.7812 93.1875 19.625C93.4688 20.4583 93.8958 21.1146 94.4688 21.5938C95.0521 22.0625 95.7812 22.2969 96.6562 22.2969Z" fill="white"/>
<path d="M106.594 25V22.5938L109.094 22.1094V5.17188L106.594 4.67188V2.25H116.125C118.156 2.25 119.932 2.72917 121.453 3.6875C122.984 4.64583 124.177 5.96354 125.031 7.64062C125.885 9.31771 126.312 11.2396 126.312 13.4062V13.8594C126.312 15.9948 125.896 17.9062 125.062 19.5938C124.229 21.2708 123.052 22.5938 121.531 23.5625C120.021 24.5208 118.255 25 116.234 25H106.594ZM113.031 21.9688H116.031C117.365 21.9688 118.5 21.6146 119.438 20.9062C120.385 20.1875 121.109 19.2188 121.609 18C122.109 16.7708 122.359 15.3906 122.359 13.8594V13.3906C122.359 11.8177 122.109 10.4271 121.609 9.21875C121.109 8 120.385 7.04167 119.438 6.34375C118.5 5.64583 117.365 5.29688 116.031 5.29688H113.031V21.9688Z" fill="white"/>
<path d="M136.391 25.3281C134.797 25.3281 133.406 24.974 132.219 24.2656C131.042 23.5469 130.125 22.5573 129.469 21.2969C128.823 20.0365 128.5 18.5938 128.5 16.9688V16.3125C128.5 14.6667 128.818 13.2031 129.453 11.9219C130.099 10.6302 130.984 9.61979 132.109 8.89062C133.234 8.15104 134.516 7.78125 135.953 7.78125C137.484 7.78125 138.766 8.08854 139.797 8.70312C140.839 9.31771 141.625 10.1927 142.156 11.3281C142.688 12.4531 142.953 13.8073 142.953 15.3906V17.6406H132.578L132.547 17.7188C132.589 18.6042 132.771 19.3906 133.094 20.0781C133.427 20.7656 133.896 21.3073 134.5 21.7031C135.115 22.099 135.859 22.2969 136.734 22.2969C137.651 22.2969 138.484 22.1719 139.234 21.9219C139.984 21.6719 140.677 21.3177 141.312 20.8594L142.547 23.3281C141.88 23.8906 141.031 24.3646 140 24.75C138.969 25.1354 137.766 25.3281 136.391 25.3281ZM132.641 14.875H139.188V14.4688C139.188 13.7292 139.073 13.0833 138.844 12.5312C138.625 11.9688 138.276 11.5312 137.797 11.2188C137.328 10.9062 136.729 10.75 136 10.75C135.365 10.75 134.807 10.9271 134.328 11.2812C133.849 11.6354 133.464 12.1198 133.172 12.7344C132.891 13.3385 132.698 14.026 132.594 14.7969L132.641 14.875Z" fill="white"/>
<path d="M151.406 25L145.922 10.7812L144.125 10.5156V8.09375H151.859V10.5156L149.906 10.8281L152.953 19.3125L153.359 20.6562H153.453L153.922 19.3125L157 10.8281L154.859 10.5156V8.09375H162.578V10.5156L160.734 10.7969L155.234 25H151.406Z" fill="white"/>
<path d="M171.109 25.3281C169.901 25.3281 168.771 25.2135 167.719 24.9844C166.677 24.7448 165.63 24.3958 164.578 23.9375L164.531 19.4688H167.359L167.953 21.9062C168.401 22.1042 168.859 22.2604 169.328 22.375C169.807 22.4792 170.339 22.5312 170.922 22.5312C172.047 22.5312 172.839 22.3333 173.297 21.9375C173.766 21.5417 174 21.0521 174 20.4688C174 19.9062 173.755 19.4271 173.266 19.0312C172.786 18.625 171.865 18.276 170.5 17.9844C168.479 17.5469 166.99 16.9115 166.031 16.0781C165.083 15.2344 164.609 14.1406 164.609 12.7969C164.609 11.8698 164.854 11.0312 165.344 10.2812C165.844 9.53125 166.573 8.93229 167.531 8.48438C168.5 8.02604 169.688 7.79688 171.094 7.79688C172.375 7.79688 173.51 7.93229 174.5 8.20312C175.5 8.46354 176.349 8.8125 177.047 9.25L177.141 13.5469H174.344L173.859 11.3125C173.536 11.0833 173.161 10.9062 172.734 10.7812C172.307 10.6562 171.818 10.5938 171.266 10.5938C170.401 10.5938 169.719 10.7865 169.219 11.1719C168.719 11.5469 168.469 12.0208 168.469 12.5938C168.469 12.9271 168.547 13.2292 168.703 13.5C168.87 13.7708 169.182 14.0208 169.641 14.25C170.109 14.4688 170.792 14.6823 171.688 14.8906C173.885 15.401 175.458 16.0677 176.406 16.8906C177.354 17.7135 177.828 18.8021 177.828 20.1562C177.828 21.6667 177.276 22.9062 176.172 23.875C175.068 24.8438 173.38 25.3281 171.109 25.3281Z" fill="white"/>
<path d="M187.203 25.3281C185.995 25.3281 184.865 25.2135 183.812 24.9844C182.771 24.7448 181.724 24.3958 180.672 23.9375L180.625 19.4688H183.453L184.047 21.9062C184.495 22.1042 184.953 22.2604 185.422 22.375C185.901 22.4792 186.432 22.5312 187.016 22.5312C188.141 22.5312 188.932 22.3333 189.391 21.9375C189.859 21.5417 190.094 21.0521 190.094 20.4688C190.094 19.9062 189.849 19.4271 189.359 19.0312C188.88 18.625 187.958 18.276 186.594 17.9844C184.573 17.5469 183.083 16.9115 182.125 16.0781C181.177 15.2344 180.703 14.1406 180.703 12.7969C180.703 11.8698 180.948 11.0312 181.438 10.2812C181.938 9.53125 182.667 8.93229 183.625 8.48438C184.594 8.02604 185.781 7.79688 187.188 7.79688C188.469 7.79688 189.604 7.93229 190.594 8.20312C191.594 8.46354 192.443 8.8125 193.141 9.25L193.234 13.5469H190.438L189.953 11.3125C189.63 11.0833 189.255 10.9062 188.828 10.7812C188.401 10.6562 187.911 10.5938 187.359 10.5938C186.495 10.5938 185.812 10.7865 185.312 11.1719C184.812 11.5469 184.562 12.0208 184.562 12.5938C184.562 12.9271 184.641 13.2292 184.797 13.5C184.964 13.7708 185.276 14.0208 185.734 14.25C186.203 14.4688 186.885 14.6823 187.781 14.8906C189.979 15.401 191.552 16.0677 192.5 16.8906C193.448 17.7135 193.922 18.8021 193.922 20.1562C193.922 21.6667 193.37 22.9062 192.266 23.875C191.161 24.8438 189.474 25.3281 187.203 25.3281Z" fill="white"/>
</svg>
